<?xml version="1.0" standalone="no"?>
<svg width="64" height="64" viewBox="0 0 512 384" version="1.1" xmlns="http://www.w3.org/2000/svg">
  <path d="M224 416c124 0 224 -100 224 -224s-100 -224 -224 -224s-224 100 -224 224s100 224 224 224zM360 56c32 32 51 75 55 120l-63 8v16l63 8c-4 45 -23 88 -55 120s-75 51 -120 55l-8 -63h-16l-8 63c-45 -4 -88 -23 -120 -55s-51 -75 -55 -120l63 -8v-16l-63 -8 c4 -45 23 -88 55 -120s75 -51 120 -55l8 63h16l8 -63c45 4 88 23 120 55z" transform="matrix(1,0,0,-1,0,384)"/>
</svg>